<?xml version="1.0" encoding="utf-8"?>
<!-- Generator: Adobe Illustrator 24.1.2, SVG Export Plug-In . SVG Version: 6.00 Build 0)  -->
<svg version="1.1" id="Laag_1" xmlns="http://www.w3.org/2000/svg" xmlns:xlink="http://www.w3.org/1999/xlink" x="0px" y="0px"
	 viewBox="0 0 1072 134.5" style="enable-background:new 0 0 1072 134.5;" xml:space="preserve">
<style type="text/css">
	.st0{fill:#F5CC02;}
	.st1{fill:#F73756;}
	.st2{fill:#FD7F0A;}
	.st3{fill:#13CB81;}
	.st4{fill:#14CA81;}
	.st5{fill:#A0EE31;}
	.st6{fill:#FCFDF8;}
	.st7{fill:#EDFAF6;}
</style>
<path class="st0" d="M1043.4,82.2c0.3,6.7,0.3,13.1-3.6,19.3c-2.8,4.5-6.7,5.8-11.2,6.8c-3.5,0.4-4,3.4-5.1,5.9
	c-1.7,4.7-5.8,6.5-10,8c-4,1.3-8,1.5-12-0.1c-2.6-0.7-5.3-1.4-7.9-2.2c-2.5-1.6-4.5-3.8-6.9-5.6c-2-2.1-5.1-0.7-7.3-2.1
	c-11.3-5.2-13.2-8.6-11.9-20c1.4-2.7,1.6-5.3-0.1-8c-6-5-8.1-15.8-4.4-22.3c0.7-1.3,2.1-2.6,1.3-4.1c-3.9-8,0-14.7,3.4-21.5
	c2.9-2.3,6.1-3.6,9.8-4c5.9-6.9,12.6-12.7,21.9-14.3c4-0.9,8-1.7,12,0.2c5,5.9,12.7,5.4,19.1,7.9c4.3,1.7,8.1,4.7,9.1,9.9
	c1.4,2.7,0,6.6,3.7,8.2c3.5,3.4,6.5,7.2,7.9,12c1.9,3.3,1.4,6.6,0.2,9.9c-1.1,3.4-3.1,6-6,8.1C1042.3,76.1,1041.6,78.8,1043.4,82.2z
	"/>
<path class="st1" d="M105.7,36.8c-0.7,11-1,25-2.7,38.9c-1.5,12.1-2.5,24.4-8.7,35.6c-4.9,8.8-11.4,14.6-21.5,16.8
	c-7.2,1.6-14.5,2.4-21.7,2.5c-12.6,0.2-19.3-8.1-24.3-18.4c-4-8.2-5.2-17.1-6.2-26.1c-0.2-2,0.9-2.7,2.5-3c6-1.3,12-2.4,18-3.8
	c2.1-0.5,2.6,0.5,3,2.2c0.9,4.3,2.3,8.4,4.7,12c2.2,3.3,5,5.9,9.4,5.5c4.4-0.4,6.6-3.4,8.1-7.1c4.3-10.4,3.9-21.5,4.8-32.4
	c1.1-13.6,1.4-27.3,1.1-40.9c-0.1-3.3,0.9-4.5,4.4-4.9c8.6-1,17.3,0.4,25.9-0.6c2.2-0.2,3.4,0.8,3.3,3.2
	C105.6,22.2,105.7,28,105.7,36.8z"/>
<path class="st2" d="M773.2,39.4c3.1-10,8.2-16.7,15.8-21.4c6-3.7,12-3.4,17.9-0.4c6.2,3.1,8.2,9,8,15.4
	c-0.2,9.8-5.2,17.2-12.9,22.9c-1.2,0.9-2.5,1.7-3.7,2.5c-0.1,0.1-0.1,0.3-0.2,0.7c6.6,5,12.4,10.6,14.2,19.3
	c1.1,5.3,0,10.2-2.2,14.8c-1.9,3.9-8.5,5.9-13.7,4.1c-7.1-2.5-13.9-5.7-18.2-12.2c-2.2-3.3-3-1.9-4.1,0.6
	c-3.6,7.9-8.3,14.8-17.2,17.4c-5.9,1.7-12,2-16.8-2.7c-4.5-4.4-4.6-10.1-3.1-15.8c2.5-9.5,7.4-17.3,15.8-22.6c2.5-1.6,2.5-2.7-0.2-4
	c-2.5-1.2-4.9-2.7-7.1-4.3c-6.8-4.9-8.6-11.9-7.6-19.8c0.6-5.3,4.1-8.6,8.6-10.7c5.8-2.7,11-0.8,15.9,2.6
	C767,28.9,770.5,33,773.2,39.4z"/>
<path class="st3" d="M900.6,98.9c0.1,11.2-6,18.3-15.6,18.3c-11.5,0-19.2-12.6-14.2-23.4c1.3-2.9,3-5.6,5.5-7.6
	c4-3.2,5.2-7,3.7-11.9c-3.3-10.8-0.5-19.5,9.3-25.7c2.4-1.5,3.6-3.8,3.4-6.8c-0.1-2.7-0.1-5.3,0-8c0.1-7,5.3-14.2,11.4-15.9
	c9-2.5,16.7,0,21,7c2.2,3.7,4.4,7.6,4.4,12c0,4,2.1,6.8,5,8.6c6.9,4.3,7.8,10.7,6.9,17.8c-0.3,2.3-1.1,4.5-1.8,6.7
	c-1.7,5.3-1.1,9.8,3.7,13.3c9.1,6.6,8.1,18.3,4.3,25.7c-4.1,7.7-11.3,8.6-19.5,6.2c-5.2-1.5-7-8-5-15.4c1.2-4.5,1.6-8.6-3-11.5
	c-5.5-3.5-12.7-3.7-16.4-0.6C901.2,89.9,900.6,92,900.6,98.9z"/>
<path class="st3" d="M618.5,82.9c0,8.8-0.2,17.6,0.1,26.4c0.1,2.5-0.1,3.8-2.8,3.9c-6,0.2-12,0.5-17.9,0.7c-2.4,0.1-3.7-0.6-3.5-3.4
	c2.4-26.6,1.9-53.2,0.5-79.8c-0.3-5.5,2-7.1,6.6-8.9c9.4-3.7,19-4.7,28.8-3.7c17.8,1.7,21.7,8.1,24.4,24.6c0.8,4.9-0.2,9.9-1.7,14.8
	c-2.1,6.7-6.4,10.7-13.6,11.1c-4.2,0.2-4.8,1.6-2.5,5.1c6.6,10.2,11.8,21.1,16.4,32.3c2.2,5.3,1.9,5.7-3.8,6.3
	c-4.5,0.4-9,0.1-13.4,0.1c-4.6,0-6.4-2-7.7-5.8c-2.9-8-6.2-16-9.3-24C618.9,82.7,618.7,82.8,618.5,82.9z"/>
<path class="st1" d="M313.3,106c-10.1,1.2-19.5,0.9-28.9-0.5c-7-1-7.1-1.2-3.4-7.3c5-8.2,5.8-17.6,6.9-26.8
	c2.2-17.2,0.5-34.2-3.3-51c-0.7-3.2,0.4-3.8,3.1-3.7c8,0.3,16,0.7,23.9,0.9c2.5,0.1,3.2,0.9,2.4,3.3c-2.6,8.1-0.4,15.7,2.8,23.2
	c3.5,8.2,6.7,16.7,10.9,24.6c0.8,1.5,1.3,4.1,3.1,4c1.8-0.1,2.4-2.5,3-4.1c5.1-13,6.2-26.5,4.6-40.2c-1.2-9.9-1.6-9.7,7.4-6.7
	c4.7,1.6,9.6,2.8,14.4,3.8c3.7,0.8,4.5,2,2.7,5.7c-5.7,11.2-11.4,22.5-12.4,35.5c-1.1,13.8-2.3,27.6,5.5,41
	c-9.7,0.5-18.6,1.7-27.5-1c-2.1-0.6-2.7-1.8-2.7-4c-0.4-19.1-8.1-36-16.2-52.8c-0.5-1-1-2.5-2.3-2.2c-1.2,0.2-1.3,1.7-1.5,2.9
	c-2.6,14.3-1.8,28.5,0.8,42.6C307.5,98,310.3,101.8,313.3,106z"/>
<path class="st4" d="M246.7,72.1c1.8-11,2.2-21.5,5.3-31.5c0.6-1.7,1.1-3.5,2.1-5c3.2-4.7,9.7-4.1,12.2,1c1.1,2.3,1.4,4.7,1.3,7.3
	c-0.6,12.1-1.1,24.3-1.7,36.4c-0.2,4.2-1.4,8.2-3,12.1c-5,12.1-20.7,14.1-29.3,4.3c-6.5-7.3-9.7-16.1-13.8-24.6
	c-1.7-3.5-3.7-6.9-6.7-10.3c-0.5,5.6-1.1,11.2-1.4,16.8c-0.2,4.7-0.6,9.3-1.6,13.8c-1.2,5.5-5,8.9-9.4,8.5c-4-0.3-6.9-3.7-7-9.5
	c-0.1-17,0-33.9,3.9-50.6c2.1-9,13.3-12.3,20.4-6.2c7.7,6.6,12.4,15.5,17.9,23.7C239.2,62.9,241.1,68.4,246.7,72.1z"/>
<path class="st2" d="M437.9,79.3c-0.5-16.1,2-32.8,2.3-49.6c0.1-5.7,3.9-9.5,9.4-9.5c9.5-0.1,19-0.1,28.5,0.3
	c5.7,0.2,10.6,3.9,11.4,8.1c0.9,4.7-0.5,8.9-4.3,12c-2.6,2.1-5.8,2.4-8.9,2.7c-3.5,0.3-7,0.6-10.5,0.4c-3.1-0.1-3.9,1-4,4
	c-0.1,7.7-0.2,7.7,7.2,8.9c2.5,0.4,4.9,1.1,7.3,1.4c4.8,0.5,7.5,3.2,8.7,7.6c1.8,6.2-2.7,13.5-8.9,15.1c-4.2,1.1-8.5,1.7-12.9,1.5
	c-3.2-0.1-4.5,1.1-4.4,4.4c0.1,5.8-0.7,11.6-2.7,17.2c-1.8,5.3-4.8,7.1-10.2,6.5c-4.1-0.5-7.9-4.2-8.1-8.7
	C437.7,94.3,437.9,87.1,437.9,79.3z"/>
<path class="st5" d="M829.9,65.4c-1.2-9.9,1.5-21.2,2-32.6c0.1-2.2,0.9-3,3-2.8c5.9,0.8,11.8,1.5,17.7,2.5c2.1,0.3,2.1,2.3,2.2,4
	c0.9,16.4,1.6,32.8-0.6,49.2c-0.4,2.9-1.7,3.7-4.2,3.5c-4.8-0.3-9.6-0.9-14.4-0.7c-5,0.2-6.1-2.1-5.7-6.6
	C830.2,77,829.9,72,829.9,65.4z"/>
<path class="st6" d="M1011.6,71.8c-0.1,3.9-0.1,7.9-0.2,11.8c-3.6,2.3-7.3,0.7-10.9,0.3c-3.5,0.4-4.9-0.9-5.3-4.8
	c-0.5-4.6-0.7-9.4-3.6-13.5c-2.6-2.9,0.3-4.2,1.7-6c1.9-2.6,4.4-4.8,5.2-8.1c0.6-2.5,1.5-2.3,3.3-0.8c3.9,3.1,7.7,6.3,12.2,8.6
	c3.5,1.8-1.6,4-0.7,6.3C1012,67.5,1012.5,69.8,1011.6,71.8z"/>
<path class="st7" d="M918.1,60.5c0.1,4.2-3.1,4.3-5.8,4.2c-2.5-0.1-5.8,0.3-6.1-3.5c-0.3-2.7,4.5-9.5,6.3-9.4
	C914.8,52.1,918.2,57.3,918.1,60.5z"/>
<path class="st0" d="M122.3,78.3c-0.4-3.5,0-6.9,1.9-10c1.6-1.8,3.1-3.7,3.9-6.1c3.4-5.1,2.2-10.3-0.4-14.9c-3.3-5.9-3.6-11.7,0-17
	c4.8-7,11.5-11.4,20.6-9.3c4.2,1,8,0.5,12.2-0.2c6.6-1.2,13.6-1.9,18.4,4.8c5.3,7.4,1.6,16.9-7.1,19.1c-4.8,1.2-9.1,1.6-13.9-0.1
	c-4.3-1.5-9-0.9-11.9,3.7c-1.5,2.7-1.4,5.3-0.1,8c1.3,2.5,2.8,4.5,6.1,3.9c4.7-0.7,9.3-1.8,14,0.2c5,2.3,7.1,6.5,6.1,12.3
	c-0.9,5.2-5.8,9-11.6,9.5c-3.7,0.3-7.2-1.3-10.9-0.3c-2.7,0.7-5.8,1.2-5.1,4.7c0.6,3.4,1.3,7.6,6.1,7.8c3.8,0.2,7.6-0.1,11.5-0.2
	c2.1-1,4.1-1.1,6.1,0.1c8.7,3.7,10.6,7.7,10,13.1c-0.4,3.5-1.9,6.5-6,7.2c-2.7,1.5-5.4,0.8-8.1-0.1l0.1-0.2c-2.7-1.3-5.4-1.3-8.1,0
	c-4.5,1.6-9,3.1-13.4,4.8c-7.5,2.9-16.2-2.5-16.6-10.4c-0.1-1-0.2-2.1,0-3c2.1-7.3,2.4-14.4-2.2-20.9
	C122.5,82.7,123.9,80.1,122.3,78.3z"/>
<path class="st5" d="M413.7,96.9c1.6,11.8-1,17.8-9.5,21.2c-4.6,1.9-9.5,0.4-14.3,0.5c-2.5-1.5-5.7,0-8.1-1.9l0,0
	c-2-1.3-4.5-1.9-5.8-4.1c-2.8-6.4-4.6-12.8,1-18.8c1.5-1.6,0.9-3.2-0.3-4.9c-3.3-4.6-4.1-9.3,0.4-13.9c1.6-1.6,1-3.3-0.2-4.9
	c-4.7-6.8-3.6-13.7,0-20.5c0.5-0.9,1.3-1.4,2.3-1.8c2.6-1.1,3.1-3.2,2.2-5.7c-3.4-10.1,2.5-19.6,13.1-21.2c5.1-0.8,9.9,0.7,14.4,2.5
	c5.3,2.1,8.6,12.3,6.1,17.7c-1.5,3.3-2.3,5.5,1.4,8.4c4.8,3.8,4.7,14.1,0.1,18.4c-2.6,2.5-1.8,4.2-0.6,6.4c3.1,5.5,3,10.9-0.4,16.3
	C414.1,92.4,411.5,93.9,413.7,96.9z"/>
<path class="st0" d="M537.5,31.1c7.3-0.1,14.6-1.3,21.7,0.9c9.2,2.9,11,9.7,4.7,17.4c-4.3,5.3-9.9,7.1-16.4,7.5
	c-3.3,0.2-7.1-1.1-9.6,2.8c2.3,2,4.7,0.6,7,0.2c9.7-1.6,15.6,5.1,12.5,14.3c-1.7,4.9-6,5.8-10.3,6.3c-3.4,0.4-6.8,0.4-10.3,0.5
	c0.2,2.4,1.7,1.9,2.7,2c4,0,8-0.2,12-0.1c6.7,0.2,10.8,4.4,11.8,11.6c0.5,3.8-2.4,9.1-8.8,11.4c-9,3.4-18.2,3.4-27.5,2.8
	c-6.9-0.5-14.8-6.1-16.2-14.5c-2.2-13.8-2.1-27.6,0.8-41.1c2.1-9.7,8.4-17.1,18.5-20.3C532.5,31.3,535.4,32.7,537.5,31.1z"/>
</svg>
